<mxfile host="app.diagrams.net" agent="Mozilla/5.0 (Windows NT 10.0; Win64; x64) AppleWebKit/537.36 (KHTML, like Gecko) Chrome/128.0.0.0 Safari/537.36 OPR/114.0.0.0" version="25.0.3">
  <diagram name="หน้า-1" id="9WlgQBgSQfU0PywozRut">
    <mxGraphModel dx="880" dy="748" grid="1" gridSize="10" guides="1" tooltips="1" connect="1" arrows="1" fold="1" page="1" pageScale="1" pageWidth="827" pageHeight="1169" math="0" shadow="0">
      <root>
        <mxCell id="0" />
        <mxCell id="1" parent="0" />
        <mxCell id="Khu-Da1dyBDllJpp4OC8-3" value="" style="edgeStyle=orthogonalEdgeStyle;rounded=0;orthogonalLoop=1;jettySize=auto;html=1;" edge="1" parent="1" source="Khu-Da1dyBDllJpp4OC8-1" target="Khu-Da1dyBDllJpp4OC8-2">
          <mxGeometry relative="1" as="geometry" />
        </mxCell>
        <mxCell id="Khu-Da1dyBDllJpp4OC8-1" value="เริ่มต้น" style="rounded=1;whiteSpace=wrap;html=1;arcSize=50;" vertex="1" parent="1">
          <mxGeometry x="120" y="10" width="120" height="40" as="geometry" />
        </mxCell>
        <mxCell id="Khu-Da1dyBDllJpp4OC8-5" value="" style="edgeStyle=orthogonalEdgeStyle;rounded=0;orthogonalLoop=1;jettySize=auto;html=1;" edge="1" parent="1" source="Khu-Da1dyBDllJpp4OC8-2" target="Khu-Da1dyBDllJpp4OC8-4">
          <mxGeometry relative="1" as="geometry" />
        </mxCell>
        <mxCell id="Khu-Da1dyBDllJpp4OC8-2" value="สร้าง num มารับค่าจากผู้ใช้" style="rounded=0;whiteSpace=wrap;html=1;" vertex="1" parent="1">
          <mxGeometry x="100" y="100" width="160" height="40" as="geometry" />
        </mxCell>
        <mxCell id="Khu-Da1dyBDllJpp4OC8-7" value="" style="edgeStyle=orthogonalEdgeStyle;rounded=0;orthogonalLoop=1;jettySize=auto;html=1;" edge="1" parent="1" source="Khu-Da1dyBDllJpp4OC8-4" target="Khu-Da1dyBDllJpp4OC8-6">
          <mxGeometry relative="1" as="geometry" />
        </mxCell>
        <mxCell id="Khu-Da1dyBDllJpp4OC8-4" value="สร้าง j มาวนลูปและเก็บค่า" style="rounded=0;whiteSpace=wrap;html=1;" vertex="1" parent="1">
          <mxGeometry x="100" y="190" width="160" height="40" as="geometry" />
        </mxCell>
        <mxCell id="Khu-Da1dyBDllJpp4OC8-9" value="" style="edgeStyle=orthogonalEdgeStyle;rounded=0;orthogonalLoop=1;jettySize=auto;html=1;" edge="1" parent="1" source="Khu-Da1dyBDllJpp4OC8-17" target="Khu-Da1dyBDllJpp4OC8-8">
          <mxGeometry relative="1" as="geometry" />
        </mxCell>
        <mxCell id="Khu-Da1dyBDllJpp4OC8-6" value="รับค่า num" style="shape=parallelogram;perimeter=parallelogramPerimeter;whiteSpace=wrap;html=1;fixedSize=1;" vertex="1" parent="1">
          <mxGeometry x="100" y="280" width="160" height="40" as="geometry" />
        </mxCell>
        <mxCell id="Khu-Da1dyBDllJpp4OC8-11" value="" style="edgeStyle=orthogonalEdgeStyle;rounded=0;orthogonalLoop=1;jettySize=auto;html=1;" edge="1" parent="1" source="Khu-Da1dyBDllJpp4OC8-8" target="Khu-Da1dyBDllJpp4OC8-10">
          <mxGeometry relative="1" as="geometry" />
        </mxCell>
        <mxCell id="Khu-Da1dyBDllJpp4OC8-12" value="เท็จ" style="edgeLabel;html=1;align=center;verticalAlign=middle;resizable=0;points=[];" vertex="1" connectable="0" parent="Khu-Da1dyBDllJpp4OC8-11">
          <mxGeometry x="-0.0516" y="-2" relative="1" as="geometry">
            <mxPoint as="offset" />
          </mxGeometry>
        </mxCell>
        <mxCell id="Khu-Da1dyBDllJpp4OC8-14" value="" style="edgeStyle=orthogonalEdgeStyle;rounded=0;orthogonalLoop=1;jettySize=auto;html=1;" edge="1" parent="1" source="Khu-Da1dyBDllJpp4OC8-8" target="Khu-Da1dyBDllJpp4OC8-13">
          <mxGeometry relative="1" as="geometry" />
        </mxCell>
        <mxCell id="Khu-Da1dyBDllJpp4OC8-15" value="จริง" style="edgeLabel;html=1;align=center;verticalAlign=middle;resizable=0;points=[];" vertex="1" connectable="0" parent="Khu-Da1dyBDllJpp4OC8-14">
          <mxGeometry x="-0.1067" y="-3" relative="1" as="geometry">
            <mxPoint as="offset" />
          </mxGeometry>
        </mxCell>
        <mxCell id="Khu-Da1dyBDllJpp4OC8-8" value="num &gt;= 2" style="rhombus;whiteSpace=wrap;html=1;" vertex="1" parent="1">
          <mxGeometry x="140" y="430" width="80" height="80" as="geometry" />
        </mxCell>
        <mxCell id="Khu-Da1dyBDllJpp4OC8-10" value="จบ" style="rounded=1;whiteSpace=wrap;html=1;arcSize=50;" vertex="1" parent="1">
          <mxGeometry x="120" y="625" width="120" height="40" as="geometry" />
        </mxCell>
        <mxCell id="Khu-Da1dyBDllJpp4OC8-19" value="" style="edgeStyle=orthogonalEdgeStyle;rounded=0;orthogonalLoop=1;jettySize=auto;html=1;" edge="1" parent="1" source="Khu-Da1dyBDllJpp4OC8-20" target="Khu-Da1dyBDllJpp4OC8-16">
          <mxGeometry relative="1" as="geometry" />
        </mxCell>
        <mxCell id="Khu-Da1dyBDllJpp4OC8-13" value="j = 2" style="rounded=0;whiteSpace=wrap;html=1;" vertex="1" parent="1">
          <mxGeometry x="300" y="455" width="120" height="30" as="geometry" />
        </mxCell>
        <mxCell id="Khu-Da1dyBDllJpp4OC8-26" value="" style="edgeStyle=orthogonalEdgeStyle;rounded=0;orthogonalLoop=1;jettySize=auto;html=1;" edge="1" parent="1" source="Khu-Da1dyBDllJpp4OC8-16" target="Khu-Da1dyBDllJpp4OC8-25">
          <mxGeometry relative="1" as="geometry" />
        </mxCell>
        <mxCell id="Khu-Da1dyBDllJpp4OC8-27" value="จริง" style="edgeLabel;html=1;align=center;verticalAlign=middle;resizable=0;points=[];" vertex="1" connectable="0" parent="Khu-Da1dyBDllJpp4OC8-26">
          <mxGeometry x="-0.2076" relative="1" as="geometry">
            <mxPoint as="offset" />
          </mxGeometry>
        </mxCell>
        <mxCell id="Khu-Da1dyBDllJpp4OC8-16" value="j &lt;= num" style="rhombus;whiteSpace=wrap;html=1;" vertex="1" parent="1">
          <mxGeometry x="320" y="565" width="80" height="80" as="geometry" />
        </mxCell>
        <mxCell id="Khu-Da1dyBDllJpp4OC8-18" value="" style="edgeStyle=orthogonalEdgeStyle;rounded=0;orthogonalLoop=1;jettySize=auto;html=1;" edge="1" parent="1" source="Khu-Da1dyBDllJpp4OC8-6" target="Khu-Da1dyBDllJpp4OC8-17">
          <mxGeometry relative="1" as="geometry">
            <mxPoint x="180" y="320" as="sourcePoint" />
            <mxPoint x="180" y="430" as="targetPoint" />
          </mxGeometry>
        </mxCell>
        <mxCell id="Khu-Da1dyBDllJpp4OC8-17" value="" style="ellipse;whiteSpace=wrap;html=1;aspect=fixed;" vertex="1" parent="1">
          <mxGeometry x="165" y="350" width="30" height="30" as="geometry" />
        </mxCell>
        <mxCell id="Khu-Da1dyBDllJpp4OC8-21" value="" style="edgeStyle=orthogonalEdgeStyle;rounded=0;orthogonalLoop=1;jettySize=auto;html=1;" edge="1" parent="1" source="Khu-Da1dyBDllJpp4OC8-13" target="Khu-Da1dyBDllJpp4OC8-20">
          <mxGeometry relative="1" as="geometry">
            <mxPoint x="360" y="485" as="sourcePoint" />
            <mxPoint x="360" y="565" as="targetPoint" />
          </mxGeometry>
        </mxCell>
        <mxCell id="Khu-Da1dyBDllJpp4OC8-20" value="" style="ellipse;whiteSpace=wrap;html=1;aspect=fixed;" vertex="1" parent="1">
          <mxGeometry x="345" y="510" width="30" height="30" as="geometry" />
        </mxCell>
        <mxCell id="Khu-Da1dyBDllJpp4OC8-39" style="edgeStyle=orthogonalEdgeStyle;rounded=0;orthogonalLoop=1;jettySize=auto;html=1;exitX=0.5;exitY=1;exitDx=0;exitDy=0;entryX=0.5;entryY=0;entryDx=0;entryDy=0;" edge="1" parent="1" source="Khu-Da1dyBDllJpp4OC8-22" target="Khu-Da1dyBDllJpp4OC8-38">
          <mxGeometry relative="1" as="geometry" />
        </mxCell>
        <mxCell id="Khu-Da1dyBDllJpp4OC8-45" value="เท็จ" style="edgeLabel;html=1;align=center;verticalAlign=middle;resizable=0;points=[];" vertex="1" connectable="0" parent="Khu-Da1dyBDllJpp4OC8-39">
          <mxGeometry x="-0.2733" y="1" relative="1" as="geometry">
            <mxPoint as="offset" />
          </mxGeometry>
        </mxCell>
        <mxCell id="Khu-Da1dyBDllJpp4OC8-43" value="" style="edgeStyle=orthogonalEdgeStyle;rounded=0;orthogonalLoop=1;jettySize=auto;html=1;" edge="1" parent="1" source="Khu-Da1dyBDllJpp4OC8-22" target="Khu-Da1dyBDllJpp4OC8-42">
          <mxGeometry relative="1" as="geometry" />
        </mxCell>
        <mxCell id="Khu-Da1dyBDllJpp4OC8-46" value="จริง" style="edgeLabel;html=1;align=center;verticalAlign=middle;resizable=0;points=[];" vertex="1" connectable="0" parent="Khu-Da1dyBDllJpp4OC8-43">
          <mxGeometry x="-0.0933" y="-1" relative="1" as="geometry">
            <mxPoint as="offset" />
          </mxGeometry>
        </mxCell>
        <mxCell id="Khu-Da1dyBDllJpp4OC8-22" value="num == j" style="rhombus;whiteSpace=wrap;html=1;" vertex="1" parent="1">
          <mxGeometry x="320" y="870" width="80" height="80" as="geometry" />
        </mxCell>
        <mxCell id="Khu-Da1dyBDllJpp4OC8-52" style="edgeStyle=orthogonalEdgeStyle;rounded=0;orthogonalLoop=1;jettySize=auto;html=1;exitX=0.5;exitY=1;exitDx=0;exitDy=0;entryX=1;entryY=0.5;entryDx=0;entryDy=0;" edge="1" parent="1" source="Khu-Da1dyBDllJpp4OC8-25" target="Khu-Da1dyBDllJpp4OC8-48">
          <mxGeometry relative="1" as="geometry" />
        </mxCell>
        <mxCell id="Khu-Da1dyBDllJpp4OC8-53" value="จริง" style="edgeLabel;html=1;align=center;verticalAlign=middle;resizable=0;points=[];" vertex="1" connectable="0" parent="Khu-Da1dyBDllJpp4OC8-52">
          <mxGeometry x="-0.6859" y="-1" relative="1" as="geometry">
            <mxPoint as="offset" />
          </mxGeometry>
        </mxCell>
        <mxCell id="Khu-Da1dyBDllJpp4OC8-25" value="num % j == 0" style="rhombus;whiteSpace=wrap;html=1;" vertex="1" parent="1">
          <mxGeometry x="470" y="562.5" width="130" height="85" as="geometry" />
        </mxCell>
        <mxCell id="Khu-Da1dyBDllJpp4OC8-54" style="edgeStyle=orthogonalEdgeStyle;rounded=0;orthogonalLoop=1;jettySize=auto;html=1;exitX=0.5;exitY=1;exitDx=0;exitDy=0;entryX=1;entryY=0.5;entryDx=0;entryDy=0;" edge="1" parent="1" source="Khu-Da1dyBDllJpp4OC8-28" target="Khu-Da1dyBDllJpp4OC8-20">
          <mxGeometry relative="1" as="geometry">
            <Array as="points">
              <mxPoint x="670" y="760" />
              <mxPoint x="760" y="760" />
              <mxPoint x="760" y="525" />
            </Array>
          </mxGeometry>
        </mxCell>
        <mxCell id="Khu-Da1dyBDllJpp4OC8-28" value="j + 1" style="rounded=0;whiteSpace=wrap;html=1;" vertex="1" parent="1">
          <mxGeometry x="610" y="675" width="120" height="30" as="geometry" />
        </mxCell>
        <mxCell id="Khu-Da1dyBDllJpp4OC8-31" value="" style="edgeStyle=orthogonalEdgeStyle;rounded=0;orthogonalLoop=1;jettySize=auto;html=1;entryX=0.5;entryY=0;entryDx=0;entryDy=0;" edge="1" parent="1" source="Khu-Da1dyBDllJpp4OC8-25" target="Khu-Da1dyBDllJpp4OC8-28">
          <mxGeometry relative="1" as="geometry">
            <mxPoint x="535" y="648" as="sourcePoint" />
            <mxPoint x="655" y="605" as="targetPoint" />
          </mxGeometry>
        </mxCell>
        <mxCell id="Khu-Da1dyBDllJpp4OC8-55" value="เท็จ" style="edgeLabel;html=1;align=center;verticalAlign=middle;resizable=0;points=[];" vertex="1" connectable="0" parent="Khu-Da1dyBDllJpp4OC8-31">
          <mxGeometry x="-0.3739" y="6" relative="1" as="geometry">
            <mxPoint as="offset" />
          </mxGeometry>
        </mxCell>
        <mxCell id="Khu-Da1dyBDllJpp4OC8-35" value="" style="edgeStyle=orthogonalEdgeStyle;rounded=0;orthogonalLoop=1;jettySize=auto;html=1;entryX=0.5;entryY=0;entryDx=0;entryDy=0;" edge="1" parent="1" source="Khu-Da1dyBDllJpp4OC8-48" target="Khu-Da1dyBDllJpp4OC8-22">
          <mxGeometry relative="1" as="geometry">
            <mxPoint x="360" y="675" as="sourcePoint" />
            <mxPoint x="360" y="825" as="targetPoint" />
          </mxGeometry>
        </mxCell>
        <mxCell id="Khu-Da1dyBDllJpp4OC8-41" style="edgeStyle=orthogonalEdgeStyle;rounded=0;orthogonalLoop=1;jettySize=auto;html=1;exitX=0.5;exitY=1;exitDx=0;exitDy=0;entryX=1;entryY=0.5;entryDx=0;entryDy=0;" edge="1" parent="1" source="Khu-Da1dyBDllJpp4OC8-37" target="Khu-Da1dyBDllJpp4OC8-17">
          <mxGeometry relative="1" as="geometry">
            <Array as="points">
              <mxPoint x="360" y="1120" />
              <mxPoint x="800" y="1120" />
              <mxPoint x="800" y="365" />
            </Array>
          </mxGeometry>
        </mxCell>
        <mxCell id="Khu-Da1dyBDllJpp4OC8-37" value="num - 1" style="rounded=0;whiteSpace=wrap;html=1;" vertex="1" parent="1">
          <mxGeometry x="300" y="1050" width="120" height="30" as="geometry" />
        </mxCell>
        <mxCell id="Khu-Da1dyBDllJpp4OC8-40" style="edgeStyle=orthogonalEdgeStyle;rounded=0;orthogonalLoop=1;jettySize=auto;html=1;exitX=0.5;exitY=1;exitDx=0;exitDy=0;entryX=0.5;entryY=0;entryDx=0;entryDy=0;" edge="1" parent="1" source="Khu-Da1dyBDllJpp4OC8-38" target="Khu-Da1dyBDllJpp4OC8-37">
          <mxGeometry relative="1" as="geometry" />
        </mxCell>
        <mxCell id="Khu-Da1dyBDllJpp4OC8-38" value="" style="ellipse;whiteSpace=wrap;html=1;aspect=fixed;" vertex="1" parent="1">
          <mxGeometry x="345" y="990" width="30" height="30" as="geometry" />
        </mxCell>
        <mxCell id="Khu-Da1dyBDllJpp4OC8-44" style="edgeStyle=orthogonalEdgeStyle;rounded=0;orthogonalLoop=1;jettySize=auto;html=1;exitX=0.5;exitY=1;exitDx=0;exitDy=0;entryX=1;entryY=0.5;entryDx=0;entryDy=0;" edge="1" parent="1" source="Khu-Da1dyBDllJpp4OC8-42" target="Khu-Da1dyBDllJpp4OC8-38">
          <mxGeometry relative="1" as="geometry" />
        </mxCell>
        <mxCell id="Khu-Da1dyBDllJpp4OC8-42" value="แสดงค่า num" style="shape=parallelogram;perimeter=parallelogramPerimeter;whiteSpace=wrap;html=1;fixedSize=1;" vertex="1" parent="1">
          <mxGeometry x="460" y="890" width="160" height="40" as="geometry" />
        </mxCell>
        <mxCell id="Khu-Da1dyBDllJpp4OC8-49" value="" style="edgeStyle=orthogonalEdgeStyle;rounded=0;orthogonalLoop=1;jettySize=auto;html=1;entryX=0.5;entryY=0;entryDx=0;entryDy=0;" edge="1" parent="1" source="Khu-Da1dyBDllJpp4OC8-16" target="Khu-Da1dyBDllJpp4OC8-48">
          <mxGeometry relative="1" as="geometry">
            <mxPoint x="360" y="645" as="sourcePoint" />
            <mxPoint x="360" y="840" as="targetPoint" />
          </mxGeometry>
        </mxCell>
        <mxCell id="Khu-Da1dyBDllJpp4OC8-50" value="เท็จ" style="edgeLabel;html=1;align=center;verticalAlign=middle;resizable=0;points=[];" vertex="1" connectable="0" parent="Khu-Da1dyBDllJpp4OC8-49">
          <mxGeometry x="-0.1396" y="2" relative="1" as="geometry">
            <mxPoint as="offset" />
          </mxGeometry>
        </mxCell>
        <mxCell id="Khu-Da1dyBDllJpp4OC8-48" value="" style="ellipse;whiteSpace=wrap;html=1;aspect=fixed;" vertex="1" parent="1">
          <mxGeometry x="345" y="810" width="30" height="30" as="geometry" />
        </mxCell>
      </root>
    </mxGraphModel>
  </diagram>
</mxfile>
